<svg xmlns="http://www.w3.org/2000/svg" viewBox="0 0 1345.6 412" fill="#E3B23C"><path d="M96.9 87.2C96.9 77.1 86.2 69 79 69c-15.3 0-35.8 26.8-25.7 42.1 15.9 26 43.6-2.9 43.6-23.9zM453 87.2c0-10.1-10.7-18.2-18-18.2-15.3 0-35.8 26.8-25.7 42.1 15.9 26 43.7-2.9 43.7-23.9z"/><path d="M727 189.1c-14.2 16.7-31.5 32.3-48.2 43.6 8.7-19.3 13-38.1 8.1-48.8 19.9-34.3-32.6-45.6-64.4-32.6-18.1 7.4-32 30.5-40.2 56.4-1.7-.2-3.4-.3-4-.2-11.8 14.2-23.7 26.8-34.9 38.4 7.8-30.9 18.2-60.9 32.9-85.2 0 0 9.8-14.2 12.4-19 7.2-14.7-46.5-9.8-48.2-4.3-2 4.3-4 8.7-5.8 13-39.6-37.7-71.9 1.8-86.6 49.7-15.3 20.8-48.2 65.1-58.3 65.1-1.7 0-3.2-1.7-3.2-5.2v-1.2c.9-26.8 19.3-65.8 32.6-92.1 11.3-12.1 14.7-19 14.7-23.1 0-7.2-11.3-9.5-22.5-9.5-6.9 0-14.2.9-18.5 2-12.1 16.8-21.5 40.7-27.8 65.4-9.5 12.9-31.3 43.6-48.5 63.3-3.2 3.5-9.5 11.8-10.1-4.3-1.4-43 62.9-165.4 80.8-187.9 10.1-12.7-46.5-9.8-48.2-4.3-15.9 32-28 63.8-38.1 92.7-31-51.7-67.1-11-83.4 40.2-13 15.5-33.5 39.7-48.6 54.2 2.3-20.8 12.1-46.2 21.4-65.8 13.6-14.4 17.6-22.5 17.9-26.8.6-9.8-39-9.8-44.2-3.5l-1.7 1.7c-19.3 13.6-43 59.4-53.7 90.3 5.2-30 19.3-62.4 30.3-84.3 11.2-12.1 15-19.3 15-23.4 0-12.4-30-11.6-41-7.5-16.2 30.8-26 56.6-31.6 78-16.6 22.1-39.6 51-47.8 51-1.7 0-3.2-1.7-3.2-5.2v-1.2c.9-26.8 19.3-65.8 32.6-92.1 11.3-12.1 14.7-19 14.7-23.1 0-7.2-11.3-9.5-22.5-9.5-6.9 0-14.2.9-18.5 2-41.1 57.7-51.2 198-12 167.6 12.7-9.8 33.7-37.5 51.5-62.8-.9 7-1.3 13.3-1.3 19 0 39 13.3 47.6 15.6 47.6 8.1 0 21.1-12.1 20.5-12.1-.3-.3-.3-.3-.3-.6 6.1-25.1 20.2-56 33.8-82-4 21.4-18.2 109.7 24.5 78.5 11.3-11.5 27.3-35 41.1-56.4-5.7 44.3 7 83.6 53.4 67 8.4-5.2 12.4-13 17-19.6 4.3 17.9 20.5 32 30.6 17.6 18.7-25.9 33.6-49 48.6-72.4-8.3 50.4-2.7 94.5 21.1 76.1 15-11.5 41.7-48.3 60.9-76.4-8.5 52.7 5.9 100.4 56.3 55.9-.3 2.9-.6 5.8-1.2 8.7C459.6 328.2 436 355 444 392c8.7 25.4 36.9 22.5 54.8 13.6v-.3c18.5-8.4 24.5-70.7 39-135.9 13.8-14.5 27.8-30.2 40.6-47.6-7.8 33.7-6.1 68.5 8.3 78.8 2.3 2 5.2 2.6 8.4 2.3 24.8 14.7 47-6.6 65.2-36.9 24.5-10.4 49.7-39.3 73.3-74.2-.6-2.2-4-5.6-6.6-2.7zm-442.1 18.1l-17 47.6c-50.5 91.5-11-126.7 29.1-82l-12.1 34.4zm201.3 180.2c-4.6 9.2-15.9-4-17-17-1.7-18.5 8.9-36.1 25.1-55.1-3.5 35.4-3.8 60.8-8.1 72.1zm20.2-149c-56 111.7-23.9-112.6 23.1-75.3-10.4 26.8-17.6 51.9-23.1 75.3zm99.1 46.5c-8.1-7.5-4.9-23.1-2-36.9 6.1 9.2 16.2 16.7 24.5 19.6-8.4 14.1-17.9 21.6-22.5 17.3zm46.7-95c-4.3 25.1-10.1 45-15.9 60-16.7-.3-28.9-18.8-8.9-58 11-21.6 26.8-27.7 24.8-2zM994.6 87.2c0-10.1-10.7-18.2-17.9-18.2-15.3 0-35.8 26.8-25.7 42.1 15.9 26 43.6-2.9 43.6-23.9zM932.5 240.7c4.9-26.8 15-47.6 28.3-73.9 11.3-12.1 14.7-19 14.7-23.1 0-7.2-11.3-9.5-22.5-9.5-6.9 0-14.1.9-18.5 2-23.1 32.3-34.6 84-34.9 123.5 4.4 2.4 29.5-.2 32.9-19z"/><path d="M1113.4 123c-2.9-7.2-31.8-8.9-31.2 0 1.7 26.3-45.6 168.6-67 163.7-7.5-1.7-.3-50.8 19.9-92.1 22.2-28.3 22.2-37.5 17.6-40.1v-.3c-15.3-10.4-38.1-5.8-40.1.9-4.7 8.3-10.4 20.3-15.5 34.2-.3.2-.5.4-.8.8-43 64.4-118.6 144-200.9 22.2C921 162.5 1001.8 0 794.6 0c-80 0-147.5 38.7-95.6 105.9 8.7-73.9 142.6-96.4 170.6-69 24.2 23.9 9.2 100.4-82.3 158.7-1.4-4-2.9-8.4-4-12.4C809 118.5 842.5 56.8 847.1 49c6.9-11.5-40.7-13.3-47.6-5.2-28.9 32.6-116.3 257.8-51.4 285.8 4.6 2 7.8-8.9 7.8-10.1v-.3c-7.8-29.7.6-54.8 11-91.2 92 127.6 174.8 59.6 219.6-4.1-8.8 37.4-8.4 76 21.3 86.7 32.6 13 132.7-158.2 105.6-187.6zM1338.4 184.7c-3.2 3.2-52.5 65.2-76.5 83.1 9.8-42.1 34.9-84.3 51.1-113.7 9.8-19.6-39-5.8-56-13.9-2.9-1.4-5.5 0-19 10.7-22.5 17.9-14.4 25.1 2.3 26.6l-.6.6c-1.4 1.5-11.4 13.6-20.9 26.7l-45 50.9c-26.8 30.3-36.1 13.3-32.6-15 98.7-65.2 77.1-85.2 62.9-90.6-7.8-6.9-31.5-21.9-53.4-4.9 0 0-65.2 48.2-31.5 138 11 28.9 35.5 23.7 55.7 0 20.5-23.9 59.5-83.7 59.5-83.7s-.1-.1-.1-.3c7.7-9.8 14.7-18.6 16.4-21.4 3.2 0 6-.3 9.5-.6-16.7 21.9-32.9 118.1-28.3 125.6 5.2 8.4 24.5-1.7 28.9-5.8 34.3-31.8 58.3-71.9 84.9-109.1-.1 0-3-7.5-7.3-3.2zm-165.8-15.3c10.4-6.4 23.1 9.2-28.3 56 5.2-19.9 14.7-41.5 28.3-56z"/></svg>